<mxfile host="app.diagrams.net" modified="2024-05-08T12:33:10.540Z" agent="Mozilla/5.0 (Windows NT 10.0; Win64; x64) AppleWebKit/537.36 (KHTML, like Gecko) Chrome/124.0.0.0 Safari/537.36" etag="0NUyvIZG61M2EpNd5JSy" version="24.3.1" type="google">
  <diagram id="C5RBs43oDa-KdzZeNtuy" name="Page-1">
    <mxGraphModel grid="1" page="1" gridSize="10" guides="1" tooltips="1" connect="1" arrows="1" fold="1" pageScale="1" pageWidth="827" pageHeight="1169" math="0" shadow="0">
      <root>
        <mxCell id="WIyWlLk6GJQsqaUBKTNV-0" />
        <mxCell id="WIyWlLk6GJQsqaUBKTNV-1" parent="WIyWlLk6GJQsqaUBKTNV-0" />
        <mxCell id="5jlJwQRvgumOSPvZPKqz-11" value="&lt;span style=&quot;font-weight: 700;&quot;&gt;TourRequestStatus&lt;/span&gt;&lt;div style=&quot;font-weight: 700;&quot;&gt;&amp;lt;&amp;lt;enum&amp;gt;&amp;gt;&lt;/div&gt;" style="swimlane;fontStyle=0;childLayout=stackLayout;horizontal=1;startSize=40;fillColor=none;horizontalStack=0;resizeParent=1;resizeParentMax=0;resizeLast=0;collapsible=1;marginBottom=0;whiteSpace=wrap;html=1;" vertex="1" parent="WIyWlLk6GJQsqaUBKTNV-1">
          <mxGeometry x="-20" y="320" width="200" height="118" as="geometry" />
        </mxCell>
        <mxCell id="5jlJwQRvgumOSPvZPKqz-12" value="PENDING" style="text;strokeColor=none;fillColor=none;align=left;verticalAlign=top;spacingLeft=4;spacingRight=4;overflow=hidden;rotatable=0;points=[[0,0.5],[1,0.5]];portConstraint=eastwest;whiteSpace=wrap;html=1;" vertex="1" parent="5jlJwQRvgumOSPvZPKqz-11">
          <mxGeometry y="40" width="200" height="26" as="geometry" />
        </mxCell>
        <mxCell id="5jlJwQRvgumOSPvZPKqz-13" value="ACCEPTED" style="text;strokeColor=none;fillColor=none;align=left;verticalAlign=top;spacingLeft=4;spacingRight=4;overflow=hidden;rotatable=0;points=[[0,0.5],[1,0.5]];portConstraint=eastwest;whiteSpace=wrap;html=1;" vertex="1" parent="5jlJwQRvgumOSPvZPKqz-11">
          <mxGeometry y="66" width="200" height="26" as="geometry" />
        </mxCell>
        <mxCell id="5jlJwQRvgumOSPvZPKqz-14" value="CANCELED" style="text;strokeColor=none;fillColor=none;align=left;verticalAlign=top;spacingLeft=4;spacingRight=4;overflow=hidden;rotatable=0;points=[[0,0.5],[1,0.5]];portConstraint=eastwest;whiteSpace=wrap;html=1;" vertex="1" parent="5jlJwQRvgumOSPvZPKqz-11">
          <mxGeometry y="92" width="200" height="26" as="geometry" />
        </mxCell>
        <mxCell id="5jlJwQRvgumOSPvZPKqz-19" value="TourRequestSegment" style="swimlane;fontStyle=1;align=center;verticalAlign=top;childLayout=stackLayout;horizontal=1;startSize=26;horizontalStack=0;resizeParent=1;resizeParentMax=0;resizeLast=0;collapsible=1;marginBottom=0;whiteSpace=wrap;html=1;" vertex="1" parent="WIyWlLk6GJQsqaUBKTNV-1">
          <mxGeometry x="330" y="340" width="420" height="180" as="geometry" />
        </mxCell>
        <mxCell id="5jlJwQRvgumOSPvZPKqz-20" value="+ Id: int &lt;span style=&quot;white-space: pre;&quot;&gt;&#x9;&lt;/span&gt;&lt;span style=&quot;white-space: pre;&quot;&gt;&#x9;&lt;/span&gt;&lt;span style=&quot;white-space: pre;&quot;&gt;&#x9;&lt;/span&gt;&lt;span style=&quot;white-space: pre;&quot;&gt;&#x9;&lt;/span&gt;&lt;span style=&quot;white-space: pre;&quot;&gt;&#x9;&lt;/span&gt;&lt;span style=&quot;white-space: pre;&quot;&gt;&#x9;&lt;/span&gt;&amp;lt;&amp;lt;+get&amp;gt;&amp;gt; &amp;lt;&amp;lt;+set&amp;gt;&amp;gt;&lt;div&gt;+ Description: string &lt;span style=&quot;white-space: pre;&quot;&gt;&#x9;&lt;/span&gt;&lt;span style=&quot;white-space: pre;&quot;&gt;&#x9;&lt;/span&gt;&lt;span style=&quot;white-space: pre;&quot;&gt;&#x9;&lt;/span&gt;&amp;lt;&amp;lt;+get&amp;gt;&amp;gt; &amp;lt;&amp;lt;+set&amp;gt;&amp;gt;&lt;/div&gt;&lt;div&gt;+ Capacity: int &lt;span style=&quot;white-space: pre;&quot;&gt;&#x9;&lt;/span&gt;&lt;span style=&quot;white-space: pre;&quot;&gt;&#x9;&lt;/span&gt;&lt;span style=&quot;white-space: pre;&quot;&gt;&#x9;&lt;/span&gt;&lt;span style=&quot;white-space: pre;&quot;&gt;&#x9;&lt;/span&gt;&amp;lt;&amp;lt;+get&amp;gt;&amp;gt; &amp;lt;&amp;lt;+set&amp;gt;&amp;gt;&lt;/div&gt;&lt;div&gt;+ FromDate: DateTime&amp;nbsp;&lt;span style=&quot;white-space: pre;&quot;&gt;&#x9;&lt;/span&gt;&lt;span style=&quot;white-space: pre;&quot;&gt;&#x9;&lt;/span&gt;&lt;span style=&quot;white-space: pre;&quot;&gt;&#x9;&lt;/span&gt;&lt;span style=&quot;background-color: initial;&quot;&gt;&amp;lt;&amp;lt;+get&amp;gt;&amp;gt; &amp;lt;&amp;lt;+set&amp;gt;&amp;gt;&lt;/span&gt;&lt;/div&gt;&lt;div&gt;+ ToDate: DateTime&amp;nbsp;&lt;span style=&quot;white-space: pre;&quot;&gt;&#x9;&lt;/span&gt;&lt;span style=&quot;white-space: pre;&quot;&gt;&#x9;&lt;/span&gt;&lt;span style=&quot;white-space: pre;&quot;&gt;&#x9;&lt;/span&gt;&lt;span style=&quot;background-color: initial;&quot;&gt;&amp;lt;&amp;lt;+get&amp;gt;&amp;gt; &amp;lt;&amp;lt;+set&amp;gt;&amp;gt;&lt;/span&gt;&lt;/div&gt;&lt;div&gt;+ AcceptedDate: DateTime&lt;span style=&quot;white-space: pre;&quot;&gt;&#x9;&lt;/span&gt;&lt;span style=&quot;white-space: pre;&quot;&gt;&#x9;&lt;/span&gt;&lt;span style=&quot;background-color: initial;&quot;&gt;&amp;lt;&amp;lt;+get&amp;gt;&amp;gt; &amp;lt;&amp;lt;+set&amp;gt;&amp;gt;&lt;/span&gt;&lt;/div&gt;&lt;div&gt;+ TourRequestSatus:enum&lt;span style=&quot;white-space: pre;&quot;&gt;&#x9;&lt;/span&gt;&lt;span style=&quot;white-space: pre;&quot;&gt;&#x9;&lt;/span&gt; &amp;lt;&amp;lt;+get&amp;gt;&amp;gt; &amp;lt;&amp;lt;+set&amp;gt;&amp;gt;&lt;/div&gt;" style="text;strokeColor=none;fillColor=none;align=left;verticalAlign=top;spacingLeft=4;spacingRight=4;overflow=hidden;rotatable=0;points=[[0,0.5],[1,0.5]];portConstraint=eastwest;whiteSpace=wrap;html=1;" vertex="1" parent="5jlJwQRvgumOSPvZPKqz-19">
          <mxGeometry y="26" width="420" height="114" as="geometry" />
        </mxCell>
        <mxCell id="5jlJwQRvgumOSPvZPKqz-21" value="" style="line;strokeWidth=1;fillColor=none;align=left;verticalAlign=middle;spacingTop=-1;spacingLeft=3;spacingRight=3;rotatable=0;labelPosition=right;points=[];portConstraint=eastwest;strokeColor=inherit;" vertex="1" parent="5jlJwQRvgumOSPvZPKqz-19">
          <mxGeometry y="140" width="420" height="8" as="geometry" />
        </mxCell>
        <mxCell id="5jlJwQRvgumOSPvZPKqz-22" value="&lt;div&gt;&lt;br&gt;&lt;/div&gt;" style="text;strokeColor=none;fillColor=none;align=left;verticalAlign=top;spacingLeft=4;spacingRight=4;overflow=hidden;rotatable=0;points=[[0,0.5],[1,0.5]];portConstraint=eastwest;whiteSpace=wrap;html=1;" vertex="1" parent="5jlJwQRvgumOSPvZPKqz-19">
          <mxGeometry y="148" width="420" height="32" as="geometry" />
        </mxCell>
        <mxCell id="5jlJwQRvgumOSPvZPKqz-23" value="Language" style="swimlane;fontStyle=1;align=center;verticalAlign=top;childLayout=stackLayout;horizontal=1;startSize=26;horizontalStack=0;resizeParent=1;resizeParentMax=0;resizeLast=0;collapsible=1;marginBottom=0;whiteSpace=wrap;html=1;" vertex="1" parent="WIyWlLk6GJQsqaUBKTNV-1">
          <mxGeometry x="500" y="760" width="200" height="78" as="geometry" />
        </mxCell>
        <mxCell id="5jlJwQRvgumOSPvZPKqz-24" value="+ ld: int &amp;lt;&amp;lt;+get&amp;gt;&amp;gt; &amp;lt;&amp;lt;+set&amp;gt;&amp;gt;&lt;div&gt;+ Name: string &amp;lt;&amp;lt;+get&amp;gt;&amp;gt; &amp;lt;&amp;lt;+set&amp;gt;&amp;gt;&lt;/div&gt;&lt;div&gt;&lt;br&gt;&lt;/div&gt;" style="text;strokeColor=none;fillColor=none;align=left;verticalAlign=top;spacingLeft=4;spacingRight=4;overflow=hidden;rotatable=0;points=[[0,0.5],[1,0.5]];portConstraint=eastwest;whiteSpace=wrap;html=1;" vertex="1" parent="5jlJwQRvgumOSPvZPKqz-23">
          <mxGeometry y="26" width="200" height="44" as="geometry" />
        </mxCell>
        <mxCell id="5jlJwQRvgumOSPvZPKqz-25" value="" style="line;strokeWidth=1;fillColor=none;align=left;verticalAlign=middle;spacingTop=-1;spacingLeft=3;spacingRight=3;rotatable=0;labelPosition=right;points=[];portConstraint=eastwest;strokeColor=inherit;" vertex="1" parent="5jlJwQRvgumOSPvZPKqz-23">
          <mxGeometry y="70" width="200" height="8" as="geometry" />
        </mxCell>
        <mxCell id="5jlJwQRvgumOSPvZPKqz-27" value="Location" style="swimlane;fontStyle=1;align=center;verticalAlign=top;childLayout=stackLayout;horizontal=1;startSize=26;horizontalStack=0;resizeParent=1;resizeParentMax=0;resizeLast=0;collapsible=1;marginBottom=0;whiteSpace=wrap;html=1;" vertex="1" parent="WIyWlLk6GJQsqaUBKTNV-1">
          <mxGeometry x="240" y="755" width="220" height="88" as="geometry" />
        </mxCell>
        <mxCell id="5jlJwQRvgumOSPvZPKqz-28" value="+ ld: int &amp;lt;&amp;lt;+get&amp;gt;&amp;gt; &amp;lt;&amp;lt;+set&amp;gt;&amp;gt;&lt;div&gt;+ City: string &amp;lt;&amp;lt;+get&amp;gt;&amp;gt; &amp;lt;&amp;lt;+set&amp;gt;&amp;gt;&lt;/div&gt;&lt;div&gt;+ Country: string &amp;lt;&amp;lt;+get&amp;gt;&amp;gt; &amp;lt;&amp;lt;+set&amp;gt;&amp;gt;&lt;br&gt;&lt;/div&gt;&lt;div&gt;&lt;br&gt;&lt;/div&gt;&lt;div&gt;&lt;br&gt;&lt;/div&gt;" style="text;strokeColor=none;fillColor=none;align=left;verticalAlign=top;spacingLeft=4;spacingRight=4;overflow=hidden;rotatable=0;points=[[0,0.5],[1,0.5]];portConstraint=eastwest;whiteSpace=wrap;html=1;" vertex="1" parent="5jlJwQRvgumOSPvZPKqz-27">
          <mxGeometry y="26" width="220" height="54" as="geometry" />
        </mxCell>
        <mxCell id="5jlJwQRvgumOSPvZPKqz-29" value="" style="line;strokeWidth=1;fillColor=none;align=left;verticalAlign=middle;spacingTop=-1;spacingLeft=3;spacingRight=3;rotatable=0;labelPosition=right;points=[];portConstraint=eastwest;strokeColor=inherit;" vertex="1" parent="5jlJwQRvgumOSPvZPKqz-27">
          <mxGeometry y="80" width="220" height="8" as="geometry" />
        </mxCell>
        <mxCell id="5jlJwQRvgumOSPvZPKqz-31" value="PrivateTourGuest" style="swimlane;fontStyle=1;align=center;verticalAlign=top;childLayout=stackLayout;horizontal=1;startSize=26;horizontalStack=0;resizeParent=1;resizeParentMax=0;resizeLast=0;collapsible=1;marginBottom=0;whiteSpace=wrap;html=1;" vertex="1" parent="WIyWlLk6GJQsqaUBKTNV-1">
          <mxGeometry x="597" y="106" width="230" height="98" as="geometry" />
        </mxCell>
        <mxCell id="5jlJwQRvgumOSPvZPKqz-32" value="+ ld: int &amp;lt;&amp;lt;+get&amp;gt;&amp;gt; &amp;lt;&amp;lt;+set&amp;gt;&amp;gt;&lt;div&gt;+ Name: string &amp;lt;&amp;lt;+get&amp;gt;&amp;gt; &amp;lt;&amp;lt;+set&amp;gt;&amp;gt;&lt;/div&gt;&lt;div&gt;+ Age: int &amp;lt;&amp;lt;+get&amp;gt;&amp;gt; &amp;lt;&amp;lt;+set&amp;gt;&amp;gt;&lt;/div&gt;" style="text;strokeColor=none;fillColor=none;align=left;verticalAlign=top;spacingLeft=4;spacingRight=4;overflow=hidden;rotatable=0;points=[[0,0.5],[1,0.5]];portConstraint=eastwest;whiteSpace=wrap;html=1;" vertex="1" parent="5jlJwQRvgumOSPvZPKqz-31">
          <mxGeometry y="26" width="230" height="64" as="geometry" />
        </mxCell>
        <mxCell id="5jlJwQRvgumOSPvZPKqz-33" value="" style="line;strokeWidth=1;fillColor=none;align=left;verticalAlign=middle;spacingTop=-1;spacingLeft=3;spacingRight=3;rotatable=0;labelPosition=right;points=[];portConstraint=eastwest;strokeColor=inherit;" vertex="1" parent="5jlJwQRvgumOSPvZPKqz-31">
          <mxGeometry y="90" width="230" height="8" as="geometry" />
        </mxCell>
        <mxCell id="5jlJwQRvgumOSPvZPKqz-39" style="edgeStyle=orthogonalEdgeStyle;rounded=0;orthogonalLoop=1;jettySize=auto;html=1;" edge="1" parent="WIyWlLk6GJQsqaUBKTNV-1" source="5jlJwQRvgumOSPvZPKqz-19" target="5jlJwQRvgumOSPvZPKqz-23">
          <mxGeometry relative="1" as="geometry">
            <mxPoint x="540" y="330" as="sourcePoint" />
            <Array as="points" />
          </mxGeometry>
        </mxCell>
        <mxCell id="5jlJwQRvgumOSPvZPKqz-40" style="edgeStyle=orthogonalEdgeStyle;rounded=0;orthogonalLoop=1;jettySize=auto;html=1;exitX=-0.009;exitY=0.7;exitDx=0;exitDy=0;exitPerimeter=0;" edge="1" parent="WIyWlLk6GJQsqaUBKTNV-1" source="5jlJwQRvgumOSPvZPKqz-20" target="5jlJwQRvgumOSPvZPKqz-27">
          <mxGeometry relative="1" as="geometry">
            <mxPoint x="277" y="640" as="targetPoint" />
            <Array as="points">
              <mxPoint x="277" y="446" />
            </Array>
          </mxGeometry>
        </mxCell>
        <mxCell id="5jlJwQRvgumOSPvZPKqz-41" style="edgeStyle=orthogonalEdgeStyle;rounded=0;orthogonalLoop=1;jettySize=auto;html=1;exitX=0.25;exitY=0;exitDx=0;exitDy=0;" edge="1" parent="WIyWlLk6GJQsqaUBKTNV-1" source="5jlJwQRvgumOSPvZPKqz-19">
          <mxGeometry relative="1" as="geometry">
            <mxPoint x="465" y="340" as="sourcePoint" />
            <mxPoint x="260" y="170" as="targetPoint" />
            <Array as="points">
              <mxPoint x="398" y="170" />
              <mxPoint x="260" y="170" />
            </Array>
          </mxGeometry>
        </mxCell>
        <mxCell id="5jlJwQRvgumOSPvZPKqz-51" value="0..*" style="text;html=1;align=center;verticalAlign=middle;whiteSpace=wrap;rounded=0;rotation=-90;" vertex="1" parent="WIyWlLk6GJQsqaUBKTNV-1">
          <mxGeometry x="490" y="610" width="60" height="30" as="geometry" />
        </mxCell>
        <mxCell id="5jlJwQRvgumOSPvZPKqz-52" value="1..1" style="text;html=1;align=center;verticalAlign=middle;whiteSpace=wrap;rounded=0;rotation=90;" vertex="1" parent="WIyWlLk6GJQsqaUBKTNV-1">
          <mxGeometry x="600" y="725" width="60" height="30" as="geometry" />
        </mxCell>
        <mxCell id="5jlJwQRvgumOSPvZPKqz-53" value="1..1" style="text;html=1;align=center;verticalAlign=middle;whiteSpace=wrap;rounded=0;rotation=-90;" vertex="1" parent="WIyWlLk6GJQsqaUBKTNV-1">
          <mxGeometry x="384" y="290" width="60" height="30" as="geometry" />
        </mxCell>
        <mxCell id="5jlJwQRvgumOSPvZPKqz-54" value="1..*" style="text;html=1;align=center;verticalAlign=middle;whiteSpace=wrap;rounded=0;" vertex="1" parent="WIyWlLk6GJQsqaUBKTNV-1">
          <mxGeometry x="260" y="140" width="60" height="30" as="geometry" />
        </mxCell>
        <mxCell id="5jlJwQRvgumOSPvZPKqz-55" value="0..*" style="text;html=1;align=center;verticalAlign=middle;whiteSpace=wrap;rounded=0;rotation=-90;" vertex="1" parent="WIyWlLk6GJQsqaUBKTNV-1">
          <mxGeometry x="230" y="450" width="60" height="30" as="geometry" />
        </mxCell>
        <mxCell id="5jlJwQRvgumOSPvZPKqz-56" value="1..1" style="text;html=1;align=center;verticalAlign=middle;whiteSpace=wrap;rounded=0;rotation=90;" vertex="1" parent="WIyWlLk6GJQsqaUBKTNV-1">
          <mxGeometry x="270" y="710" width="60" height="30" as="geometry" />
        </mxCell>
        <mxCell id="5jlJwQRvgumOSPvZPKqz-57" style="edgeStyle=orthogonalEdgeStyle;rounded=0;orthogonalLoop=1;jettySize=auto;html=1;exitX=0.565;exitY=0.001;exitDx=0;exitDy=0;exitPerimeter=0;startArrow=classic;startFill=1;endArrow=none;endFill=0;" edge="1" parent="WIyWlLk6GJQsqaUBKTNV-1" source="5jlJwQRvgumOSPvZPKqz-19" target="5jlJwQRvgumOSPvZPKqz-32">
          <mxGeometry relative="1" as="geometry" />
        </mxCell>
        <mxCell id="5jlJwQRvgumOSPvZPKqz-58" value="1..*" style="text;html=1;align=center;verticalAlign=middle;whiteSpace=wrap;rounded=0;" vertex="1" parent="WIyWlLk6GJQsqaUBKTNV-1">
          <mxGeometry x="660" y="140" width="60" height="30" as="geometry" />
        </mxCell>
        <mxCell id="5jlJwQRvgumOSPvZPKqz-59" value="1..1" style="text;html=1;align=center;verticalAlign=middle;whiteSpace=wrap;rounded=0;rotation=90;" vertex="1" parent="WIyWlLk6GJQsqaUBKTNV-1">
          <mxGeometry x="560" y="300" width="60" height="30" as="geometry" />
        </mxCell>
        <mxCell id="4kxg5QKpTawmiVq2YWF--2" value="TourRequestStat" style="swimlane;fontStyle=1;align=center;verticalAlign=top;childLayout=stackLayout;horizontal=1;startSize=26;horizontalStack=0;resizeParent=1;resizeParentMax=0;resizeLast=0;collapsible=1;marginBottom=0;whiteSpace=wrap;html=1;" vertex="1" parent="WIyWlLk6GJQsqaUBKTNV-1">
          <mxGeometry x="290" y="-40" width="320" height="98" as="geometry" />
        </mxCell>
        <mxCell id="4kxg5QKpTawmiVq2YWF--3" value="+ AcceptedCount: int &lt;span style=&quot;white-space: pre;&quot;&gt;&#x9;&lt;/span&gt;&lt;span style=&quot;white-space: pre;&quot;&gt;&#x9;&lt;/span&gt;&lt;span style=&quot;white-space: pre;&quot;&gt;&#x9;&lt;/span&gt;&amp;lt;&amp;lt;+get&amp;gt;&amp;gt; &amp;lt;&amp;lt;+set&amp;gt;&lt;div&gt;+ RejectedCount: int&amp;nbsp;&lt;span style=&quot;white-space: pre;&quot;&gt;&#x9;&lt;/span&gt;&lt;span style=&quot;white-space: pre;&quot;&gt;&#x9;&lt;span style=&quot;white-space: pre;&quot;&gt;&#x9;&lt;/span&gt;&lt;/span&gt;&amp;lt;&amp;lt;+get&amp;gt;&amp;gt; &amp;lt;&amp;lt;+set&amp;gt;&amp;gt;&lt;/div&gt;&lt;div&gt;+ Year:int&lt;span style=&quot;white-space: pre;&quot;&gt;&#x9;&lt;/span&gt;&lt;span style=&quot;white-space: pre;&quot;&gt;&#x9;&lt;/span&gt;&lt;span style=&quot;white-space: pre;&quot;&gt;&#x9;&lt;/span&gt;&lt;span style=&quot;white-space: pre;&quot;&gt;&#x9;&lt;/span&gt;&lt;span style=&quot;white-space: pre;&quot;&gt;&#x9;&lt;/span&gt;&amp;nbsp;&lt;span style=&quot;white-space: pre;&quot;&gt;&#x9;&lt;/span&gt;&amp;lt;&amp;lt;+get&amp;gt;&amp;gt; &amp;lt;&amp;lt;+set&amp;gt;&amp;gt;&lt;br&gt;&lt;/div&gt;" style="text;strokeColor=none;fillColor=none;align=left;verticalAlign=top;spacingLeft=4;spacingRight=4;overflow=hidden;rotatable=0;points=[[0,0.5],[1,0.5]];portConstraint=eastwest;whiteSpace=wrap;html=1;" vertex="1" parent="4kxg5QKpTawmiVq2YWF--2">
          <mxGeometry y="26" width="320" height="64" as="geometry" />
        </mxCell>
        <mxCell id="4kxg5QKpTawmiVq2YWF--4" value="" style="line;strokeWidth=1;fillColor=none;align=left;verticalAlign=middle;spacingTop=-1;spacingLeft=3;spacingRight=3;rotatable=0;labelPosition=right;points=[];portConstraint=eastwest;strokeColor=inherit;" vertex="1" parent="4kxg5QKpTawmiVq2YWF--2">
          <mxGeometry y="90" width="320" height="8" as="geometry" />
        </mxCell>
        <mxCell id="4kxg5QKpTawmiVq2YWF--5" value="1..*" style="text;html=1;align=center;verticalAlign=middle;resizable=0;points=[];autosize=1;strokeColor=none;fillColor=none;" vertex="1" parent="WIyWlLk6GJQsqaUBKTNV-1">
          <mxGeometry x="545" y="128" width="40" height="30" as="geometry" />
        </mxCell>
        <mxCell id="4kxg5QKpTawmiVq2YWF--15" value="&lt;p style=&quot;margin:0px;margin-top:4px;text-align:center;&quot;&gt;&lt;b&gt;TourRequest&lt;/b&gt;&lt;/p&gt;&lt;hr size=&quot;1&quot; style=&quot;border-style:solid;&quot;&gt;&lt;p style=&quot;margin:0px;margin-left:4px;&quot;&gt;+ Id: int&amp;nbsp;&lt;span style=&quot;white-space: pre;&quot;&gt;&#x9;&lt;/span&gt;&lt;span style=&quot;white-space: pre;&quot;&gt;&#x9;&lt;/span&gt;&lt;span style=&quot;white-space: pre;&quot;&gt;&#x9;&lt;/span&gt;&lt;span style=&quot;white-space: pre;&quot;&gt;&#x9;&lt;span style=&quot;white-space: pre;&quot;&gt;&#x9;&lt;/span&gt;&lt;/span&gt;&amp;lt;&amp;lt;+get&amp;gt;&amp;gt; &amp;lt;&amp;lt;+set&amp;gt;&lt;/p&gt;&lt;div&gt;+ IsComplex: bool&amp;nbsp;&lt;span style=&quot;white-space: pre;&quot;&gt;&#x9;&lt;/span&gt;&lt;span style=&quot;white-space: pre;&quot;&gt;&#x9;&lt;span style=&quot;white-space: pre;&quot;&gt;&#x9;&lt;/span&gt;&lt;/span&gt;&amp;lt;&amp;lt;+get&amp;gt;&amp;gt; &amp;lt;&amp;lt;+set&amp;gt;&amp;gt;&lt;/div&gt;&lt;div&gt;+ TourRequestSatus:enum&amp;nbsp;&lt;span style=&quot;white-space: pre;&quot;&gt;&#x9;&lt;/span&gt;&amp;lt;&amp;lt;+get&amp;gt;&amp;gt; &amp;lt;&amp;lt;+set&amp;gt;&amp;gt;&lt;/div&gt;&lt;hr size=&quot;1&quot; style=&quot;border-style:solid;&quot;&gt;&lt;p style=&quot;margin:0px;margin-left:4px;&quot;&gt;&lt;br&gt;&lt;/p&gt;" style="verticalAlign=top;align=left;overflow=fill;html=1;whiteSpace=wrap;" vertex="1" parent="WIyWlLk6GJQsqaUBKTNV-1">
          <mxGeometry x="-80" y="106" width="340" height="114" as="geometry" />
        </mxCell>
      </root>
    </mxGraphModel>
  </diagram>
</mxfile>
